<?xml version="1.0" encoding="UTF-8"?>
<svg version="1.1" xmlns="http://www.w3.org/2000/svg" width="189" height="199">
<path d="M0 0 C2.51883293 1.70313891 4.90794982 3.50205344 7.29296875 5.38671875 C7.9065625 5.825 8.52015625 6.26328125 9.15234375 6.71484375 C17.43300361 13.02030034 24.80352551 24.23035335 27.23046875 34.26171875 C27.67901143 39.04007137 26.00967865 42.5301905 23.29296875 46.38671875 C18.81158715 50.75319313 14.66735261 52.47419627 8.48046875 52.82421875 C3.67983435 52.74598619 1.07675822 51.36634354 -2.76953125 48.63671875 C-7.87171787 45.34498545 -12.86359235 45.24451681 -18.70703125 46.38671875 C-17.33868263 35.25988389 -17.33868263 35.25988389 -14.58203125 31.44921875 C-11.93684636 27.1287501 -12.58353009 23.46253886 -12.95703125 18.5078125 C-12.6477758 14.64695152 -11.33601037 13.14406599 -8.70703125 10.38671875 C-11.01935547 7.824219 -11.01935547 7.824219 -13.70703125 5.38671875 C-14.69703125 5.38671875 -15.68703125 5.38671875 -16.70703125 5.38671875 C-18.89453125 3.88671875 -18.89453125 3.88671875 -20.70703125 2.38671875 C-21.97825431 6.27983937 -22.73326199 8.87959106 -22.51953125 13.01171875 C-22.70703125 16.38671875 -22.70703125 16.38671875 -24.70703125 18.94921875 C-27.02648591 20.83377566 -29.36327416 22.61913176 -31.76953125 24.38671875 C-37.30611906 28.48441933 -40.56450299 32.47141614 -41.70703125 39.38671875 C-42.1474524 43.71499556 -42.45884536 48.04346562 -42.70703125 52.38671875 C-45.08203125 52.07421875 -45.08203125 52.07421875 -47.70703125 51.38671875 C-50.54063318 47.13631586 -50.12008899 43.37518529 -49.70703125 38.38671875 C-48.70703125 35.26171875 -48.70703125 35.26171875 -47.70703125 33.38671875 C-51.23574046 36.38904592 -51.76666688 39.37119527 -52.55859375 43.8046875 C-52.78835224 47.80127602 -51.74221929 49.97051025 -49.70703125 53.38671875 C-47.35764237 54.56141319 -45.7562992 54.58706764 -43.13671875 54.703125 C-41.79287109 54.7659668 -41.79287109 54.7659668 -40.421875 54.83007812 C-39.48472656 54.86939453 -38.54757813 54.90871094 -37.58203125 54.94921875 C-36.16470703 55.01399414 -36.16470703 55.01399414 -34.71875 55.08007812 C-32.38166033 55.18630947 -30.04446295 55.28835051 -27.70703125 55.38671875 C-28.44213369 57.32991988 -29.19572174 59.26613466 -29.95703125 61.19921875 C-30.58351563 62.81763672 -30.58351563 62.81763672 -31.22265625 64.46875 C-33.0084507 67.97924593 -34.81538237 69.64357098 -38.45703125 71.07421875 C-45.63310185 72.07089522 -50.71886615 71.60199025 -56.70703125 67.38671875 C-63.14269377 61.51762697 -66.24769704 54.39339692 -66.91015625 45.73046875 C-67.16571461 30.2265947 -62.73443414 15.75903996 -51.9140625 4.359375 C-37.81726532 -8.24041717 -16.14804854 -9.62358448 0 0 Z " fill="#408F67" transform="translate(152.70703125,110.61328125)"/>
<path d="M0 0 C9.01047443 3.29228873 13.84391794 9.67531757 18 18 C20.67632845 24.70902744 21.70427627 33.19464372 19.2421875 40.13671875 C16.5544085 44.33769617 13.49424413 46.5977035 8.75 47.875 C1.3808689 48.1206377 -3.77104412 45.10257457 -9.10546875 40.16796875 C-15.39617017 32.96933104 -18.12968391 25.4571814 -18.25 16.0625 C-18.27578125 14.85722656 -18.3015625 13.65195313 -18.328125 12.41015625 C-17.87134301 7.6628863 -16.04957704 5.17679849 -12.9375 1.6875 C-8.63964895 -0.78147826 -4.84519395 -0.63978406 0 0 Z " fill="#3F9167" transform="translate(84,63)"/>
<path d="M0 0 C5.95239009 4.81614209 8.74927524 11.59526667 10 19 C10.65873098 27.24680513 10.24711956 35.44501283 5.3125 42.3671875 C-0.16090299 48.77563016 -0.16090299 48.77563016 -3.953125 49.23828125 C-9.51339873 49.41794996 -12.71983347 48.89106048 -17 45 C-23.61462258 36.52960831 -25.00662071 27.55724163 -24 17 C-22.56180101 11.0989361 -20.57031098 5.17857004 -16 1 C-10.39796637 -2.4051577 -5.8881503 -2.71348274 0 0 Z " fill="#409068" transform="translate(135,50)"/>
<path d="M0 0 C6.43343732 2.53951473 10.36005152 6.60548827 13.84375 12.453125 C15.78824649 18.28661447 15.81058423 24.3707128 13.21875 29.953125 C9.36574757 34.00891703 5.95495105 35.60164741 0.40625 35.828125 C-7.86486929 35.48234242 -13.61609528 31.28091755 -19.15625 25.453125 C-22.02399508 21.10525342 -23.30736813 16.65158884 -23.15625 11.453125 C-21.84684063 6.90870425 -20.00688905 3.24889033 -16.15625 0.33203125 C-11.18381912 -1.85311904 -5.16758842 -1.31062025 0 0 Z " fill="#408F67" transform="translate(70.15625,111.546875)"/>
<path d="M0 0 C3.40107191 2.55080394 5.42509415 5.0865976 7 9 C8.07269504 17.96547222 7.42559154 25.61699166 2 33 C-1.43530128 36.99930596 -4.81458618 40.16039328 -10.125 41.125 C-14.49055718 40.98417557 -16.50472203 40.62145848 -20 38 C-24.11331775 32.89028851 -24.62426941 27.35149696 -24.3828125 20.9609375 C-23.41173693 13.4499652 -19.60547033 7.05893697 -14 2 C-9.5985879 -0.72686238 -5.0295337 -0.80700784 0 0 Z " fill="#409067" transform="translate(178,74)"/>
<path d="M0 0 C4.80497105 1.7556625 8.20724329 4.65876195 12 8 C8.59990759 8 8.0266326 7.48848005 5.375 5.5625 C1.09578723 2.83008524 -2.86419172 1.19150066 -8 2 C-11.43110916 4.0009459 -14.21266874 6.42533748 -16 10 C-16.43002844 16.12040477 -16.11707563 21.21332661 -14 27 C-14.44140625 29.16015625 -14.44140625 29.16015625 -15 31 C-18.41542857 23.88452382 -18.95428894 16.83078281 -18 9 C-13.87578724 0.77467932 -8.85131992 -1.16877332 0 0 Z " fill="#4C8569" transform="translate(84,63)"/>
<path d="M0 0 C4.34364623 3.48961008 6.67969998 7.5867699 8 13 C7.34 13 6.68 13 6 13 C5.67 11.35 5.34 9.7 5 8 C4.34 8 3.68 8 3 8 C2.443125 7.01 1.88625 6.02 1.3125 5 C0.549375 4.01 -0.21375 3.02 -1 2 C-4.4846985 1.57943294 -6.83263796 1.41631898 -10 3 C-11.99960012 3.039992 -14.00047242 3.04346799 -16 3 C-16.4021875 3.8353125 -16.4021875 3.8353125 -16.8125 4.6875 C-18.10122647 7.19712523 -19.52926478 9.59334236 -21 12 C-21.33 11.34 -21.66 10.68 -22 10 C-19.97326383 5.64112907 -17.28590328 1.35033406 -13 -1 C-8.38500844 -2.49279854 -4.4452298 -1.81815292 0 0 Z " fill="#488367" transform="translate(135,50)"/>
<path d="M0 0 C3 3.75 3 3.75 3 6 C3.84304687 6.06058594 4.68609375 6.12117187 5.5546875 6.18359375 C7.19824219 6.30927734 7.19824219 6.30927734 8.875 6.4375 C10.51082031 6.55931641 10.51082031 6.55931641 12.1796875 6.68359375 C15 7 15 7 17 8 C17 8.99 17 9.98 17 11 C23.71092698 13.55654361 28.98843054 13.12185111 36 12 C33.06131971 14.93868029 30.31316615 15.2117075 26.3125 15.375 C21.42137183 15.34660448 18.85348178 14.02908384 14.9375 11.25 C10.74746949 8.54675451 6.45335992 7.84428287 1.5 8.375 C0.675 8.58125 -0.15 8.7875 -1 9 C-0.67 6.03 -0.34 3.06 0 0 Z " fill="#4B8369" transform="translate(135,148)"/>
<path d="M0 0 C0.89203125 0.01804687 1.7840625 0.03609375 2.703125 0.0546875 C3.71632812 0.08949219 3.71632812 0.08949219 4.75 0.125 C5.08 0.785 5.41 1.445 5.75 2.125 C2.23812804 4.53314077 0.02343092 5.49129408 -4.25 5.125 C-4.25 4.465 -4.25 3.805 -4.25 3.125 C-7.61016052 4.30559694 -10.03924553 5.2826014 -12.25 8.125 C-12.58 8.99125 -12.91 9.8575 -13.25 10.75 C-13.58 11.53375 -13.91 12.3175 -14.25 13.125 C-15.24 13.455 -16.23 13.785 -17.25 14.125 C-15.62457665 8.76110296 -12.11935334 3.96786919 -7.3828125 0.92578125 C-4.79717159 -0.04501799 -2.75385601 -0.07246989 0 0 Z " fill="#468F6A" transform="translate(173.25,73.875)"/>
<path d="M0 0 C0.33 0.66 0.66 1.32 1 2 C1.66 2.33 2.32 2.66 3 3 C2.01 3.33 1.02 3.66 0 4 C0.04640625 4.86882812 0.0928125 5.73765625 0.140625 6.6328125 C0.49912127 18.07908612 0.49912127 18.07908612 -4 23 C-4.625 21.1875 -4.625 21.1875 -5 19 C-4.01 17.515 -4.01 17.515 -3 16 C-2.90098095 12.65918324 -3.06853597 9.36926978 -3.22265625 6.03125 C-3 3 -3 3 -1.49609375 1.09375 C-1.00238281 0.7328125 -0.50867188 0.371875 0 0 Z " fill="#4A8669" transform="translate(143,123)"/>
<path d="M0 0 C2.81279108 2.93508634 3.75521644 5.79956594 4.1328125 9.83984375 C3.8293307 14.77588598 1.38029563 18.77307055 -2.25 22 C-2.8275 22.33 -3.405 22.66 -4 23 C-3.67 21.35 -3.34 19.7 -3 18 C-2.01 18 -1.02 18 0 18 C1.67407948 12.14072182 1.52003714 5.89014391 0 0 Z " fill="#4E826A" transform="translate(176,137)"/>
<path d="M0 0 C0.66 0 1.32 0 2 0 C7.02761541 6.59874523 6.40187827 12.95127124 6 21 C5.67 21 5.34 21 5 21 C4.94392578 19.89591797 4.94392578 19.89591797 4.88671875 18.76953125 C4.52112684 13.34300036 4.2036184 9.5384594 1 5 C0.3125 2.1875 0.3125 2.1875 0 0 Z " fill="#4E856A" transform="translate(179,76)"/>
<path d="M0 0 C0.99 0.33 1.98 0.66 3 1 C4.55266653 1.1464714 6.10995662 1.24694074 7.66796875 1.31640625 C9.00698242 1.37924805 9.00698242 1.37924805 10.37304688 1.44335938 C11.76620117 1.50233398 11.76620117 1.50233398 13.1875 1.5625 C14.12787109 1.60568359 15.06824219 1.64886719 16.03710938 1.69335938 C18.35792854 1.79938665 20.67885325 1.90145029 23 2 C22.34 3.65 21.68 5.3 21 7 C20.34 5.68 19.68 4.36 19 3 C13.06 3 7.12 3 1 3 C0.67 2.01 0.34 1.02 0 0 Z " fill="#4D8167" transform="translate(102,164)"/>
<path d="M0 0 C2.43718285 3.65577427 2.29880388 5.58669902 2.3125 9.9375 C2.32925781 11.16339844 2.34601563 12.38929687 2.36328125 13.65234375 C1.98432293 17.14446505 1.37989475 18.49451713 -1 21 C-1.33 18.36 -1.66 15.72 -2 13 C-1.34 13 -0.68 13 0 13 C0 8.71 0 4.42 0 0 Z " fill="#4B8569" transform="translate(102,84)"/>
<path d="M0 0 C0.33 0.99 0.66 1.98 1 3 C-0.30368347 4.68996005 -1.64444707 6.35135455 -3 8 C-4.09759609 10.08110513 -5.0962212 12.18673421 -6.0703125 14.328125 C-7 16 -7 16 -9 17 C-7.21470545 10.23467327 -4.50062149 5.34539835 0 0 Z " fill="#4A8166" transform="translate(99,117)"/>
<path d="M0 0 C0.66 0.33 1.32 0.66 2 1 C1.45730469 1.36351563 0.91460937 1.72703125 0.35546875 2.1015625 C-4.25021557 5.33798932 -6.68130965 7.75243763 -9 13 C-9.99 13.33 -10.98 13.66 -12 14 C-10.35240787 8.56294599 -6.79335168 3.71290433 -1.9296875 0.73046875 C-1.29289063 0.48941406 -0.65609375 0.24835938 0 0 Z " fill="#4B8067" transform="translate(168,74)"/>
<path d="M0 0 C-3.94440539 3.0537332 -7.01936356 3.32572255 -11.81640625 3.30078125 C-14.22597959 2.96887222 -15.89744217 2.19669391 -18 1 C-9.42857143 0.85714286 -9.42857143 0.85714286 -6 2 C-6 1.34 -6 0.68 -6 0 C-3.50907189 -1.24546405 -2.58919267 -0.7767578 0 0 Z " fill="#4C8367" transform="translate(80,144)"/>
<path d="M0 0 C1.66611905 -0.042721 3.33382885 -0.04063832 5 0 C5.33 0.33 5.66 0.66 6 1 C7.68608966 1.07205511 9.37500659 1.08386068 11.0625 1.0625 C11.98160156 1.05347656 12.90070313 1.04445313 13.84765625 1.03515625 C14.55792969 1.02355469 15.26820312 1.01195313 16 1 C15.67 1.66 15.34 2.32 15 3 C8.96851254 4.60019055 5.50362208 3.41386933 0 1 C0 0.67 0 0.34 0 0 Z " fill="#4B866A" transform="translate(81,107)"/>
<path d="M0 0 C2.64 0 5.28 0 8 0 C8.33 0.99 8.66 1.98 9 3 C8.67 3.66 8.34 4.32 8 5 C7.236875 4.67 6.47375 4.34 5.6875 4 C3.00930865 2.82563314 3.00930865 2.82563314 0 3 C0 2.01 0 1.02 0 0 Z " fill="#498668" transform="translate(134,112)"/>
<path d="M0 0 C4.50802601 1.25805377 7.4912812 2.90407165 11 6 C10.67 6.66 10.34 7.32 10 8 C9.01 7.67 8.02 7.34 7 7 C7 6.34 7 5.68 7 5 C6.34 5 5.68 5 5 5 C5 4.34 5 3.68 5 3 C3.35 2.67 1.7 2.34 0 2 C0 1.34 0 0.68 0 0 Z " fill="#498368" transform="translate(149,110)"/>
<path d="M0 0 C3.48331435 3.01887244 4.79157144 5.56909529 6 10 C2.46413986 6.82679218 0.41421969 4.83256305 0 0 Z " fill="#4B8467" transform="translate(96,73)"/>
<path d="M0 0 C2.25245881 2.68841859 3.88213958 4.64641875 5 8 C3.68 8 2.36 8 1 8 C0.67 5.36 0.34 2.72 0 0 Z " fill="#468467" transform="translate(170,127)"/>
<path d="M0 0 C2 1.25 2 1.25 4 3 C4 4.32 4 5.64 4 7 C4.66 7 5.32 7 6 7 C6 7.66 6 8.32 6 9 C3.5067466 8.00269864 2.22532561 7.34925469 0.75 5.0625 C0 3 0 3 0 0 Z " fill="#4B8367" transform="translate(155,104)"/>
<path d="M0 0 C0.33 0 0.66 0 1 0 C1.17835515 4.54805635 0.99785435 7.8794254 -1 12 C-1.33 12 -1.66 12 -2 12 C-2.21278058 7.53160785 -1.59138085 4.17737474 0 0 Z " fill="#4E866B" transform="translate(130,112)"/>
</svg>
